
<svg width="120" height="120" viewBox="0 0 120 120" fill="none" xmlns="http://www.w3.org/2000/svg">
  <rect width="120" height="120" rx="60" fill="#E5EDFF"/>
  <path d="M60 65C71.0457 65 80 56.0457 80 45C80 33.9543 71.0457 25 60 25C48.9543 25 40 33.9543 40 45C40 56.0457 48.9543 65 60 65Z" fill="#4F80FF"/>
  <path d="M94 100V95C94 89.6348 91.8929 84.4804 88.1421 80.7296C84.3914 76.9789 79.2369 74.8719 73.8718 74.8719H46.1282C40.7631 74.8719 35.6086 76.9789 31.8579 80.7296C28.1071 84.4804 26 89.6348 26 95V100H94Z" fill="#4F80FF"/>
</svg>
